# xmcd
#
# Track frame offsets:
#	150
#	14426
#	23008
#	36846
#	47132
#	64331
#	76309
#	86925
#	101083
#	112810
#	124803
#	138093
#
# Disc length: 1992 seconds
#
# Revision: 1
# Processed by: cddbd v1.5.2PL0 Copyright (c) Steve Scherf et al.
# Submitted via: audiograbber 1.83.01
#
DISCID=9a07c60c
DTITLE=The Equals - Best Of The Equals
DYEAR=1970
DGENRE=Rock
TTITLE0=Viva Bobby Joe
TTITLE1=Hey Baby It's Time
TTITLE2=Michael And The Slipper Tree
TTITLE3=She Reminds Me Of Spring In The Winter
TTITLE4=I´m A Poor Man
TTITLE5=Lonely Rita
TTITLE6=Softly, Softly
TTITLE7=Give Love A Try
TTITLE8=Green Light
TTITLE9=Cant Find A Girl To Love Me
TTITLE10=Instant Love
TTITLE11=All I Want To Do Is Love You
EXTD=
EXTT0=
EXTT1=
EXTT2=
EXTT3=
EXTT4=
EXTT5=
EXTT6=
EXTT7=
EXTT8=
EXTT9=
EXTT10=
EXTT11=
PLAYORDER=
